Coordinates
version=1
nRows=11
nColumns=42
inDegrees=yes

Units are S.I. units (second, meters, Newtons, ...)
If the header above contains a line with 'inDegrees', this indicates whether rotational values are in degrees (yes) or radians (no).

endheader
time	pelvis_tilt	pelvis_list	pelvis_rotation	pelvis_tx	pelvis_ty	pelvis_tz	hip_flexion_r	hip_adduction_r	hip_rotation_r	knee_angle_r	knee_adduction_r	knee_angle_r_beta	ankle_angle_r	subtalar_angle_r	mtp_angle_r	hip_flexion_l	hip_adduction_l	hip_rotation_l	knee_angle_l	knee_adduction_l	knee_angle_l_beta	ankle_angle_l	subtalar_angle_l	mtp_angle_l	lumbar_extension	lumbar_bending	lumbar_rotation	arm_flex_r	arm_add_r	arm_rot_r	elbow_flex_r	pro_sup_r	wrist_flex_r	wrist_dev_r	arm_flex_l	arm_add_l	arm_rot_l	elbow_flex_l	pro_sup_l	wrist_flex_l	wrist_dev_l
      0.77000000	      8.66610212	     -1.24884769	    -10.57196906	     -0.83391796	      0.94758176	      0.28977899	    -26.26323857	      0.39580678	     -1.88686550	      2.50595305	      2.27543893	      0.04373713	     26.62770978	     17.44408155	     -7.63432874	     14.03954616	     -5.42578019	    -28.25097598	      1.55358926	      4.10115352	      0.02711525	     10.84952928	     23.61386581	     -7.63432874	    -22.76322634	     -0.66189818	      7.65812325	      7.02283808	    -18.53681683	     12.94634263	     44.48586250	     90.00000001	      0.00000000	      0.00000000	    -15.65040370	     -5.12932134	     -2.66907563	     34.43076447	     90.00000001	      0.00000000	      0.00000000
      0.78000000	      8.57386846	     -1.39834107	    -10.91507880	     -0.81937224	      0.94428903	      0.29030681	    -26.96200311	      0.29076191	     -1.49890317	      2.92140169	      2.22388420	      0.05098808	     27.01658270	     17.23515764	     -7.62789177	     14.62167288	     -5.75486986	    -29.32732452	      1.26537730	      4.41022549	      0.02208500	     10.82944508	     25.28639754	     -7.62789177	    -22.61453083	     -0.61252457	      8.03364934	      7.13604439	    -18.69658504	     12.96883473	     44.43019698	     90.00000001	      0.00000000	      0.00000000	    -16.03525918	     -4.97319610	     -2.90033009	     34.55664500	     90.00000001	      0.00000000	      0.00000000
      0.79000000	      8.42375560	     -1.46616037	    -11.09412979	     -0.80462026	      0.94108436	      0.29053475	    -27.57946100	      0.14463250	     -1.41891633	      3.37646361	      2.19599048	      0.05893041	     27.13938071	     17.19539957	     -7.62708700	     15.25319606	     -5.86176311	    -29.17858604	      1.22330311	      4.46907093	      0.02135067	     10.76522150	     25.34753879	     -7.62708700	    -22.38223044	     -0.58478055	      8.22532758	      7.17056686	    -18.78971001	     12.91916806	     44.34552785	     90.00000001	      0.00000000	      0.00000000	    -16.36611742	     -4.90045625	     -2.95279411	     34.60229110	     90.00000001	      0.00000000	      0.00000000
      0.80000000	      8.49530411	     -1.25555225	    -11.64476413	     -0.78963186	      0.93843891	      0.29096383	    -28.26874039	     -0.58569535	     -1.14654649	      4.06063091	      2.29762354	      0.07087138	     27.54409990	     17.18647594	     -7.62417425	     15.47546732	     -5.63427854	    -29.08789649	      1.28400194	      4.35049238	      0.02241006	     10.59104510	     25.52200106	     -7.62417425	    -22.31957917	     -1.00416889	      8.60011571	      7.22344334	    -18.80878432	     12.83577619	     44.08770108	     90.00000001	      0.00000000	      0.00000000	    -16.68075857	     -4.78184014	     -3.35978051	     34.81653145	     90.00000001	      0.00000000	      0.00000000
      0.81000000	      8.44479706	     -1.08677242	    -12.08738432	     -0.77452983	      0.93594032	      0.29107705	    -28.76167728	     -1.24246209	     -1.05046807	      4.88790599	      2.40391180	      0.08531005	     27.57145810	     17.26931928	     -7.62242908	     15.89576318	     -5.40434228	    -28.51121034	      1.81332861	      4.00225129	      0.03164855	     10.50113744	     25.16842632	     -7.62242908	    -22.14433505	     -1.29417686	      8.89146812	      7.19935007	    -18.84238077	     12.72736149	     43.83540751	     90.00000001	      0.00000000	      0.00000000	    -16.89135967	     -4.68911379	     -3.53079929	     34.82487140	     90.00000001	      0.00000000	      0.00000000
      0.82000000	      8.48651714	     -0.47829631	    -12.51777966	     -0.75896756	      0.93371130	      0.29096119	    -28.99448757	     -2.47396888	     -2.35059440	      6.33532253	      2.59091853	      0.11057224	     27.98586591	     19.01906828	     -7.61080995	     16.04217928	     -4.53337465	    -26.74216632	      2.15846302	      3.59820237	      0.03767229	      9.75088339	     22.47098664	     -7.61080995	    -21.93039185	     -2.06956524	      9.02002687	      7.03724183	    -18.74996728	     12.51453431	     43.56119879	     90.00000001	      0.00000000	      0.00000000	    -17.05212927	     -4.64294796	     -3.99220960	     34.81251029	     90.00000001	      0.00000000	      0.00000000
      0.83000000	      8.44927123	      0.04531390	    -12.91695381	     -0.74337597	      0.93175814	      0.29079526	    -29.17896780	     -3.58422642	     -3.09424103	      7.71064887	      2.74084340	      0.13457621	     27.91417308	     19.98121615	     -7.59909841	     16.40689196	     -3.87148336	    -25.38850196	      3.22043232	      3.22543628	      0.05620715	      9.16224328	     20.39927411	     -7.59909841	    -21.66148412	     -2.72920785	      9.15852867	      6.82933105	    -18.63346150	     12.25942971	     43.21758184	     90.00000001	      0.00000000	      0.00000000	    -17.14461779	     -4.66764144	     -4.13042708	     34.75432566	     90.00000001	      0.00000000	      0.00000000
      0.84000000	      8.32116765	      0.46701995	    -13.22617838	     -0.72768559	      0.93010305	      0.29062200	    -29.33280144	     -4.50275534	     -3.21610475	      8.96926667	      2.88217727	      0.15654323	     27.25746730	     19.92519164	     -7.59733022	     17.08459178	     -3.49637448	    -24.83913726	      5.16619213	      2.94762177	      0.09016706	      8.83041756	     19.38092292	     -7.59733022	    -21.32020210	     -3.24746288	      9.25517800	      6.55563198	    -18.50321008	     12.06159934	     42.83264672	     90.00000001	      0.00000000	      0.00000000	    -17.14675482	     -4.71990457	     -4.20448296	     34.58407146	     90.00000001	      0.00000000	      0.00000000
      0.85000000	      8.23595983	      0.98405427	    -13.46737156	     -0.71173757	      0.92884428	      0.29024820	    -29.40712117	     -5.53034235	     -3.54107046	     10.43922499	      3.03390724	      0.18219885	     26.40872039	     20.02415665	     -7.59554563	     17.73072140	     -3.00203538	    -24.32656904	      7.35764996	      2.69543912	      0.12841522	      8.33017544	     18.21371215	     -7.59554563	    -21.00079967	     -3.84783252	      9.24621702	      6.21379353	    -18.30540689	     11.75507343	     42.39709246	     90.00000001	      0.00000000	      0.00000000	    -17.08609149	     -4.80221282	     -4.30685046	     34.39360892	     90.00000001	      0.00000000	      0.00000000
      0.86000000	      8.23407885	      1.44714602	    -13.65069071	     -0.69571120	      0.92815912	      0.28975635	    -29.49125999	     -6.52160939	     -3.67531734	     12.04674673	      3.24708685	      0.21025539	     25.33990802	     20.12653310	     -7.59420162	     18.19303968	     -2.51566249	    -23.66644243	      9.55761721	      2.48627906	      0.16681189	      7.77201038	     17.31901985	     -7.59420162	    -20.80755055	     -4.39992365	      9.16582059	      5.84785762	    -18.09634839	     11.48724668	     41.96709822	     90.00000001	      0.00000000	      0.00000000	    -16.94147158	     -4.89302849	     -4.36797656	     34.17779694	     90.00000001	      0.00000000	      0.00000000
      0.87000000	      8.26891656	      2.09571763	    -13.69512803	     -0.67918519	      0.92782222	      0.28924330	    -29.47308994	     -7.58382981	     -4.36603998	     13.91790156	      3.24712689	      0.24291321	     23.86731494	     20.28283443	     -7.59237040	     18.67750294	     -1.83838061	    -23.41120883	     11.99979191	      2.28689990	      0.20943588	      7.10691280	     16.11841127	     -7.59237040	    -20.56399521	     -5.14828752	      8.95962363	      5.34982258	    -17.75901107	     11.03591859	     41.41981346	     90.00000001	      0.00000000	      0.00000000	    -16.75118826	     -5.09037439	     -4.48747234	     33.92875209	     90.00000001	      0.00000000	      0.00000000
